<mxfile host="65bd71144e">
    <diagram id="_UxFQ_0E_hbpEMtKLm1K" name="lap1.1">
        <mxGraphModel dx="1189" dy="609" grid="1" gridSize="10" guides="1" tooltips="1" connect="1" arrows="1" fold="1" page="1" pageScale="1" pageWidth="850" pageHeight="1100" background="#FFFFFF" math="0" shadow="0">
            <root>
                <mxCell id="0"/>
                <mxCell id="1" parent="0"/>
                <mxCell id="69oGPSVdqGjq_GLPQMWP-30" value="" style="edgeStyle=none;html=1;fontColor=#FF0000;strokeColor=#3333FF;entryX=0.5;entryY=0;entryDx=0;entryDy=0;exitX=0.5;exitY=1;exitDx=0;exitDy=0;" edge="1" parent="1" source="69oGPSVdqGjq_GLPQMWP-29" target="69oGPSVdqGjq_GLPQMWP-10">
                    <mxGeometry relative="1" as="geometry"/>
                </mxCell>
                <mxCell id="69oGPSVdqGjq_GLPQMWP-10" value="&lt;font color=&quot;#ff0000&quot;&gt;Khóa Học&lt;/font&gt;" style="rounded=0;whiteSpace=wrap;html=1;labelBackgroundColor=#FFFF33;strokeColor=#36393d;fillColor=#ffff88;" vertex="1" parent="1">
                    <mxGeometry x="220" y="460" width="120" height="60" as="geometry"/>
                </mxCell>
                <mxCell id="69oGPSVdqGjq_GLPQMWP-12" value="&lt;font color=&quot;#ff0000&quot;&gt;Sinh viên&lt;/font&gt;" style="rounded=0;whiteSpace=wrap;html=1;labelBackgroundColor=#FFFF33;strokeColor=#36393d;fillColor=#ffff88;" vertex="1" parent="1">
                    <mxGeometry x="530" y="610" width="120" height="60" as="geometry"/>
                </mxCell>
                <mxCell id="69oGPSVdqGjq_GLPQMWP-20" value="&lt;font color=&quot;#ff0000&quot;&gt;Danh sách Khóa học&lt;/font&gt;" style="rounded=0;whiteSpace=wrap;html=1;labelBackgroundColor=#FFFF33;strokeColor=#36393d;fillColor=#ffff88;" vertex="1" parent="1">
                    <mxGeometry x="530" y="460" width="120" height="60" as="geometry"/>
                </mxCell>
                <mxCell id="69oGPSVdqGjq_GLPQMWP-24" value="" style="endArrow=open;html=1;endSize=12;startArrow=diamondThin;startSize=14;startFill=1;edgeStyle=orthogonalEdgeStyle;align=left;verticalAlign=bottom;fontColor=#FF0000;strokeColor=#3333FF;entryX=0;entryY=0.5;entryDx=0;entryDy=0;exitX=1;exitY=0.5;exitDx=0;exitDy=0;" edge="1" parent="1" source="69oGPSVdqGjq_GLPQMWP-10" target="69oGPSVdqGjq_GLPQMWP-20">
                    <mxGeometry x="-1" y="3" relative="1" as="geometry">
                        <mxPoint x="340" y="480" as="sourcePoint"/>
                        <mxPoint x="710" y="480" as="targetPoint"/>
                        <Array as="points">
                            <mxPoint x="340" y="490"/>
                        </Array>
                    </mxGeometry>
                </mxCell>
                <mxCell id="69oGPSVdqGjq_GLPQMWP-42" value="" style="edgeStyle=none;html=1;fontColor=#FF0000;strokeColor=#3333FF;exitX=1;exitY=0.5;exitDx=0;exitDy=0;entryX=0;entryY=0.5;entryDx=0;entryDy=0;" edge="1" parent="1" source="69oGPSVdqGjq_GLPQMWP-41" target="69oGPSVdqGjq_GLPQMWP-29">
                    <mxGeometry relative="1" as="geometry">
                        <mxPoint x="190" y="370" as="targetPoint"/>
                    </mxGeometry>
                </mxCell>
                <mxCell id="69oGPSVdqGjq_GLPQMWP-29" value="&lt;font color=&quot;#ff0000&quot;&gt;Hệ thống đăng kí&lt;/font&gt;" style="rounded=0;whiteSpace=wrap;html=1;labelBackgroundColor=#FFFF33;strokeColor=#36393d;fillColor=#ffff88;" vertex="1" parent="1">
                    <mxGeometry x="220" y="270" width="120" height="60" as="geometry"/>
                </mxCell>
                <mxCell id="69oGPSVdqGjq_GLPQMWP-33" value="" style="endArrow=none;html=1;fontColor=#FF0000;strokeColor=#3333FF;exitX=0.5;exitY=0;exitDx=0;exitDy=0;entryX=0.5;entryY=1;entryDx=0;entryDy=0;" edge="1" parent="1" source="69oGPSVdqGjq_GLPQMWP-12" target="69oGPSVdqGjq_GLPQMWP-20">
                    <mxGeometry width="50" height="50" relative="1" as="geometry">
                        <mxPoint x="600" y="510" as="sourcePoint"/>
                        <mxPoint x="650" y="460" as="targetPoint"/>
                    </mxGeometry>
                </mxCell>
                <mxCell id="69oGPSVdqGjq_GLPQMWP-39" value="1" style="text;html=1;align=center;verticalAlign=middle;resizable=0;points=[];autosize=1;strokeColor=none;fillColor=none;fontColor=#FF0000;" vertex="1" parent="1">
                    <mxGeometry x="280" y="330" width="20" height="20" as="geometry"/>
                </mxCell>
                <mxCell id="69oGPSVdqGjq_GLPQMWP-40" value="0..*" style="text;html=1;align=center;verticalAlign=middle;resizable=0;points=[];autosize=1;strokeColor=none;fillColor=none;fontColor=#FF0000;" vertex="1" parent="1">
                    <mxGeometry x="275" y="430" width="30" height="20" as="geometry"/>
                </mxCell>
                <mxCell id="69oGPSVdqGjq_GLPQMWP-41" value="&lt;font color=&quot;#ff0000&quot;&gt;Mẫu đăng kí&lt;/font&gt;" style="rounded=0;whiteSpace=wrap;html=1;labelBackgroundColor=#FFFF33;strokeColor=#36393d;fillColor=#ffff88;" vertex="1" parent="1">
                    <mxGeometry x="15" y="270" width="120" height="60" as="geometry"/>
                </mxCell>
                <mxCell id="69oGPSVdqGjq_GLPQMWP-43" value="0..*" style="text;html=1;align=center;verticalAlign=middle;resizable=0;points=[];autosize=1;strokeColor=none;fillColor=none;fontColor=#FF0000;" vertex="1" parent="1">
                    <mxGeometry x="135" y="300" width="30" height="20" as="geometry"/>
                </mxCell>
                <mxCell id="69oGPSVdqGjq_GLPQMWP-44" value="1" style="text;html=1;align=center;verticalAlign=middle;resizable=0;points=[];autosize=1;strokeColor=none;fillColor=none;fontColor=#FF0000;" vertex="1" parent="1">
                    <mxGeometry x="200" y="300" width="20" height="20" as="geometry"/>
                </mxCell>
                <mxCell id="69oGPSVdqGjq_GLPQMWP-47" value="&lt;font color=&quot;#ff0000&quot;&gt;Nhân viên khoa&lt;/font&gt;" style="rounded=0;whiteSpace=wrap;html=1;labelBackgroundColor=#FFFF33;strokeColor=#36393d;fillColor=#ffff88;" vertex="1" parent="1">
                    <mxGeometry x="220" y="600" width="120" height="60" as="geometry"/>
                </mxCell>
                <mxCell id="69oGPSVdqGjq_GLPQMWP-53" value="1" style="text;html=1;align=center;verticalAlign=middle;resizable=0;points=[];autosize=1;strokeColor=none;fillColor=none;fontColor=#FF0000;" vertex="1" parent="1">
                    <mxGeometry x="350" y="470" width="20" height="20" as="geometry"/>
                </mxCell>
                <mxCell id="69oGPSVdqGjq_GLPQMWP-54" value="1..*" style="text;html=1;align=center;verticalAlign=middle;resizable=0;points=[];autosize=1;strokeColor=none;fillColor=none;fontColor=#FF0000;" vertex="1" parent="1">
                    <mxGeometry x="495" y="470" width="30" height="20" as="geometry"/>
                </mxCell>
                <mxCell id="69oGPSVdqGjq_GLPQMWP-55" value="0..*" style="text;html=1;align=center;verticalAlign=middle;resizable=0;points=[];autosize=1;strokeColor=none;fillColor=none;fontColor=#FF0000;" vertex="1" parent="1">
                    <mxGeometry x="345" y="600" width="30" height="20" as="geometry"/>
                </mxCell>
                <mxCell id="69oGPSVdqGjq_GLPQMWP-56" value="1..*" style="text;html=1;align=center;verticalAlign=middle;resizable=0;points=[];autosize=1;strokeColor=none;fillColor=none;fontColor=#FF0000;" vertex="1" parent="1">
                    <mxGeometry x="520" y="520" width="30" height="20" as="geometry"/>
                </mxCell>
                <mxCell id="69oGPSVdqGjq_GLPQMWP-57" value="0..*" style="text;html=1;align=center;verticalAlign=middle;resizable=0;points=[];autosize=1;strokeColor=none;fillColor=none;fontColor=#FF0000;" vertex="1" parent="1">
                    <mxGeometry x="585" y="590" width="30" height="20" as="geometry"/>
                </mxCell>
                <mxCell id="69oGPSVdqGjq_GLPQMWP-58" value="1..*" style="text;html=1;align=center;verticalAlign=middle;resizable=0;points=[];autosize=1;strokeColor=none;fillColor=none;fontColor=#FF0000;" vertex="1" parent="1">
                    <mxGeometry x="585" y="520" width="30" height="20" as="geometry"/>
                </mxCell>
                <mxCell id="8IzJXHb4NHh8uz1D8R7h-1" value="" style="endArrow=none;html=1;fontColor=#FF0000;strokeColor=#3333FF;exitX=1;exitY=0;exitDx=0;exitDy=0;entryX=0;entryY=1;entryDx=0;entryDy=0;" edge="1" parent="1" source="69oGPSVdqGjq_GLPQMWP-47" target="69oGPSVdqGjq_GLPQMWP-20">
                    <mxGeometry width="50" height="50" relative="1" as="geometry">
                        <mxPoint x="440" y="510" as="sourcePoint"/>
                        <mxPoint x="490" y="460" as="targetPoint"/>
                    </mxGeometry>
                </mxCell>
            </root>
        </mxGraphModel>
    </diagram>
    <diagram name="lap1.2" id="RYfqkhEIGYZpy4Kvbkqd">
        <mxGraphModel dx="1189" dy="609" grid="1" gridSize="10" guides="1" tooltips="1" connect="1" arrows="1" fold="1" page="1" pageScale="1" pageWidth="850" pageHeight="1100" background="#FFFFFF" math="0" shadow="0">
            <root>
                <mxCell id="ChFzxE-hWu39rJrbuBB7-0"/>
                <mxCell id="ChFzxE-hWu39rJrbuBB7-1" parent="ChFzxE-hWu39rJrbuBB7-0"/>
                <mxCell id="6YHprF1FvIJKnkjolSpg-0" value="&lt;font color=&quot;#ff0000&quot;&gt;Kí hợp đồng&lt;/font&gt;" style="rounded=0;whiteSpace=wrap;html=1;labelBackgroundColor=#FFFF33;strokeColor=#36393d;fillColor=#ffff88;" vertex="1" parent="ChFzxE-hWu39rJrbuBB7-1">
                    <mxGeometry x="120" y="100" width="120" height="60" as="geometry"/>
                </mxCell>
                <mxCell id="-flt12kWFM7OfgQ0mb0j-1" value="" style="edgeStyle=none;html=1;fontColor=#FF0000;strokeColor=#3333FF;" edge="1" parent="ChFzxE-hWu39rJrbuBB7-1" source="6YHprF1FvIJKnkjolSpg-2" target="-flt12kWFM7OfgQ0mb0j-0">
                    <mxGeometry relative="1" as="geometry"/>
                </mxCell>
                <mxCell id="-flt12kWFM7OfgQ0mb0j-3" value="" style="edgeStyle=none;html=1;fontColor=#FF0000;strokeColor=#3333FF;" edge="1" parent="ChFzxE-hWu39rJrbuBB7-1" source="6YHprF1FvIJKnkjolSpg-2" target="-flt12kWFM7OfgQ0mb0j-2">
                    <mxGeometry relative="1" as="geometry"/>
                </mxCell>
                <mxCell id="6YHprF1FvIJKnkjolSpg-2" value="&lt;font color=&quot;#ff0000&quot;&gt;Khách hàng&amp;nbsp;&lt;/font&gt;" style="rounded=0;whiteSpace=wrap;html=1;labelBackgroundColor=#FFFF33;strokeColor=#36393d;fillColor=#ffff88;" vertex="1" parent="ChFzxE-hWu39rJrbuBB7-1">
                    <mxGeometry x="120" y="240" width="120" height="60" as="geometry"/>
                </mxCell>
                <mxCell id="6YHprF1FvIJKnkjolSpg-5" value="&lt;font color=&quot;#ff0000&quot;&gt;Công ty&lt;/font&gt;" style="rounded=0;whiteSpace=wrap;html=1;labelBackgroundColor=#FFFF33;strokeColor=#36393d;fillColor=#ffff88;" vertex="1" parent="ChFzxE-hWu39rJrbuBB7-1">
                    <mxGeometry x="440" y="100" width="120" height="60" as="geometry"/>
                </mxCell>
                <mxCell id="6YHprF1FvIJKnkjolSpg-8" value="&lt;font color=&quot;#ff0000&quot;&gt;Thông tin căn nhà&lt;/font&gt;" style="rounded=0;whiteSpace=wrap;html=1;labelBackgroundColor=#FFFF33;strokeColor=#36393d;fillColor=#ffff88;" vertex="1" parent="ChFzxE-hWu39rJrbuBB7-1">
                    <mxGeometry x="440" y="380" width="120" height="60" as="geometry"/>
                </mxCell>
                <mxCell id="-flt12kWFM7OfgQ0mb0j-0" value="&lt;font color=&quot;#ff0000&quot;&gt;Khách mua&amp;nbsp;&lt;/font&gt;" style="rounded=0;whiteSpace=wrap;html=1;labelBackgroundColor=#FFFF33;strokeColor=#36393d;fillColor=#ffff88;" vertex="1" parent="ChFzxE-hWu39rJrbuBB7-1">
                    <mxGeometry x="20" y="380" width="120" height="60" as="geometry"/>
                </mxCell>
                <mxCell id="-flt12kWFM7OfgQ0mb0j-2" value="&lt;font color=&quot;#ff0000&quot;&gt;Khách bán&amp;nbsp;&lt;/font&gt;" style="rounded=0;whiteSpace=wrap;html=1;labelBackgroundColor=#FFFF33;strokeColor=#36393d;fillColor=#ffff88;" vertex="1" parent="ChFzxE-hWu39rJrbuBB7-1">
                    <mxGeometry x="220" y="380" width="120" height="60" as="geometry"/>
                </mxCell>
                <mxCell id="-flt12kWFM7OfgQ0mb0j-6" value="" style="endArrow=none;html=1;fontColor=#FF0000;strokeColor=#3333FF;exitX=1;exitY=0.5;exitDx=0;exitDy=0;entryX=0;entryY=0.5;entryDx=0;entryDy=0;" edge="1" parent="ChFzxE-hWu39rJrbuBB7-1" source="6YHprF1FvIJKnkjolSpg-0" target="6YHprF1FvIJKnkjolSpg-5">
                    <mxGeometry width="50" height="50" relative="1" as="geometry">
                        <mxPoint x="190" y="250" as="sourcePoint"/>
                        <mxPoint x="190" y="170" as="targetPoint"/>
                    </mxGeometry>
                </mxCell>
                <mxCell id="-flt12kWFM7OfgQ0mb0j-7" value="" style="endArrow=diamondThin;endFill=1;endSize=24;html=1;fontColor=#FF0000;strokeColor=#3333FF;entryX=0.5;entryY=0;entryDx=0;entryDy=0;exitX=0.5;exitY=1;exitDx=0;exitDy=0;" edge="1" parent="ChFzxE-hWu39rJrbuBB7-1" source="6YHprF1FvIJKnkjolSpg-0" target="6YHprF1FvIJKnkjolSpg-2">
                    <mxGeometry width="160" relative="1" as="geometry">
                        <mxPoint x="510" y="310" as="sourcePoint"/>
                        <mxPoint x="670" y="310" as="targetPoint"/>
                    </mxGeometry>
                </mxCell>
                <mxCell id="kIf_Ze4gFEKOfoDL0Ew3-0" value="&lt;font color=&quot;#ff0000&quot;&gt;Nhà&amp;nbsp;&lt;/font&gt;" style="rounded=0;whiteSpace=wrap;html=1;labelBackgroundColor=#FFFF33;strokeColor=#36393d;fillColor=#ffff88;" vertex="1" parent="ChFzxE-hWu39rJrbuBB7-1">
                    <mxGeometry x="440" y="220" width="120" height="60" as="geometry"/>
                </mxCell>
                <mxCell id="kIf_Ze4gFEKOfoDL0Ew3-2" value="" style="endArrow=none;html=1;fontColor=#FF0000;strokeColor=#3333FF;exitX=0.5;exitY=0;exitDx=0;exitDy=0;entryX=0.5;entryY=1;entryDx=0;entryDy=0;" edge="1" parent="ChFzxE-hWu39rJrbuBB7-1" source="kIf_Ze4gFEKOfoDL0Ew3-0" target="6YHprF1FvIJKnkjolSpg-5">
                    <mxGeometry width="50" height="50" relative="1" as="geometry">
                        <mxPoint x="560" y="340" as="sourcePoint"/>
                        <mxPoint x="610" y="290" as="targetPoint"/>
                    </mxGeometry>
                </mxCell>
                <mxCell id="kIf_Ze4gFEKOfoDL0Ew3-4" value="" style="endArrow=diamondThin;endFill=1;endSize=24;html=1;fontColor=#FF0000;strokeColor=#3333FF;entryX=1;entryY=0.5;entryDx=0;entryDy=0;exitX=0;exitY=0.5;exitDx=0;exitDy=0;" edge="1" parent="ChFzxE-hWu39rJrbuBB7-1" source="6YHprF1FvIJKnkjolSpg-8" target="6YHprF1FvIJKnkjolSpg-2">
                    <mxGeometry width="160" relative="1" as="geometry">
                        <mxPoint x="190" y="170" as="sourcePoint"/>
                        <mxPoint x="190" y="250" as="targetPoint"/>
                    </mxGeometry>
                </mxCell>
                <mxCell id="kIf_Ze4gFEKOfoDL0Ew3-5" value="" style="endArrow=diamondThin;endFill=1;endSize=24;html=1;fontColor=#FF0000;strokeColor=#3333FF;entryX=0.5;entryY=0;entryDx=0;entryDy=0;exitX=0.5;exitY=1;exitDx=0;exitDy=0;" edge="1" parent="ChFzxE-hWu39rJrbuBB7-1" source="kIf_Ze4gFEKOfoDL0Ew3-0" target="6YHprF1FvIJKnkjolSpg-8">
                    <mxGeometry width="160" relative="1" as="geometry">
                        <mxPoint x="450" y="420" as="sourcePoint"/>
                        <mxPoint x="250" y="280" as="targetPoint"/>
                    </mxGeometry>
                </mxCell>
                <mxCell id="2IUAbXohQa4fwucc9610-0" value="1..*" style="text;html=1;align=center;verticalAlign=middle;resizable=0;points=[];autosize=1;strokeColor=none;fillColor=none;fontColor=#FF0000;" vertex="1" parent="ChFzxE-hWu39rJrbuBB7-1">
                    <mxGeometry x="175" y="160" width="30" height="20" as="geometry"/>
                </mxCell>
                <mxCell id="2IUAbXohQa4fwucc9610-1" value="0..*" style="text;html=1;align=center;verticalAlign=middle;resizable=0;points=[];autosize=1;strokeColor=none;fillColor=none;fontColor=#FF0000;" vertex="1" parent="ChFzxE-hWu39rJrbuBB7-1">
                    <mxGeometry x="185" y="210" width="30" height="20" as="geometry"/>
                </mxCell>
                <mxCell id="2IUAbXohQa4fwucc9610-2" value="*" style="text;html=1;align=center;verticalAlign=middle;resizable=0;points=[];autosize=1;strokeColor=none;fillColor=none;fontColor=#FF0000;" vertex="1" parent="ChFzxE-hWu39rJrbuBB7-1">
                    <mxGeometry x="240" y="130" width="20" height="20" as="geometry"/>
                </mxCell>
                <mxCell id="2IUAbXohQa4fwucc9610-3" value="1" style="text;html=1;align=center;verticalAlign=middle;resizable=0;points=[];autosize=1;strokeColor=none;fillColor=none;fontColor=#FF0000;" vertex="1" parent="ChFzxE-hWu39rJrbuBB7-1">
                    <mxGeometry x="420" y="130" width="20" height="20" as="geometry"/>
                </mxCell>
                <mxCell id="2IUAbXohQa4fwucc9610-4" value="1" style="text;html=1;align=center;verticalAlign=middle;resizable=0;points=[];autosize=1;strokeColor=none;fillColor=none;fontColor=#FF0000;" vertex="1" parent="ChFzxE-hWu39rJrbuBB7-1">
                    <mxGeometry x="480" y="160" width="20" height="20" as="geometry"/>
                </mxCell>
                <mxCell id="2IUAbXohQa4fwucc9610-5" value="1..*" style="text;html=1;align=center;verticalAlign=middle;resizable=0;points=[];autosize=1;strokeColor=none;fillColor=none;fontColor=#FF0000;" vertex="1" parent="ChFzxE-hWu39rJrbuBB7-1">
                    <mxGeometry x="475" y="200" width="30" height="20" as="geometry"/>
                </mxCell>
                <mxCell id="ZGPsyZA_IXD_HIPG9SPc-0" value="1" style="text;html=1;align=center;verticalAlign=middle;resizable=0;points=[];autosize=1;strokeColor=none;fillColor=none;fontColor=#FF0000;" vertex="1" parent="ChFzxE-hWu39rJrbuBB7-1">
                    <mxGeometry x="500" y="280" width="20" height="20" as="geometry"/>
                </mxCell>
                <mxCell id="ZGPsyZA_IXD_HIPG9SPc-1" value="0..*" style="text;html=1;align=center;verticalAlign=middle;resizable=0;points=[];autosize=1;strokeColor=none;fillColor=none;fontColor=#FF0000;" vertex="1" parent="ChFzxE-hWu39rJrbuBB7-1">
                    <mxGeometry x="505" y="350" width="30" height="20" as="geometry"/>
                </mxCell>
            </root>
        </mxGraphModel>
    </diagram>
    <diagram name="lap1.3" id="PTI4m0lSxJVTpoNXbfq7">
        <mxGraphModel dx="1189" dy="609" grid="1" gridSize="10" guides="1" tooltips="1" connect="1" arrows="1" fold="1" page="1" pageScale="1" pageWidth="850" pageHeight="1100" background="#FFFFFF" math="0" shadow="0">
            <root>
                <mxCell id="U2COYKZ9y0e4vOzo1eaQ-0"/>
                <mxCell id="U2COYKZ9y0e4vOzo1eaQ-1" parent="U2COYKZ9y0e4vOzo1eaQ-0"/>
                <mxCell id="1-s_EBftzV6ss8E919WM-0" style="edgeStyle=none;html=1;entryX=0.5;entryY=0;entryDx=0;entryDy=0;fontColor=#FF0000;strokeColor=#3333FF;" edge="1" parent="U2COYKZ9y0e4vOzo1eaQ-1" source="2zSRY0cgR5PDKBvKgZgw-1" target="kw6-8Ziui9tUm82AIqNF-0">
                    <mxGeometry relative="1" as="geometry"/>
                </mxCell>
                <mxCell id="2zSRY0cgR5PDKBvKgZgw-1" value="&lt;font color=&quot;#ff0000&quot;&gt;Đăng kí thành viên&lt;/font&gt;" style="rounded=0;whiteSpace=wrap;html=1;labelBackgroundColor=#FFFF33;strokeColor=#36393d;fillColor=#ffff88;" vertex="1" parent="U2COYKZ9y0e4vOzo1eaQ-1">
                    <mxGeometry x="200" y="100" width="120" height="60" as="geometry"/>
                </mxCell>
                <mxCell id="kw6-8Ziui9tUm82AIqNF-0" value="&lt;font color=&quot;#ff0000&quot;&gt;Video&lt;/font&gt;" style="rounded=0;whiteSpace=wrap;html=1;labelBackgroundColor=#FFFF33;strokeColor=#36393d;fillColor=#ffff88;" vertex="1" parent="U2COYKZ9y0e4vOzo1eaQ-1">
                    <mxGeometry x="200" y="250" width="120" height="60" as="geometry"/>
                </mxCell>
                <mxCell id="kw6-8Ziui9tUm82AIqNF-6" value="&lt;font color=&quot;#ff0000&quot;&gt;Danh Sách Video&lt;/font&gt;" style="rounded=0;whiteSpace=wrap;html=1;labelBackgroundColor=#FFFF33;strokeColor=#36393d;fillColor=#ffff88;" vertex="1" parent="U2COYKZ9y0e4vOzo1eaQ-1">
                    <mxGeometry x="410" y="250" width="120" height="60" as="geometry"/>
                </mxCell>
                <mxCell id="o8oBgXos8wijMpKWkSOp-0" value="&lt;font color=&quot;#ff0000&quot;&gt;Khách hàng&lt;/font&gt;" style="rounded=0;whiteSpace=wrap;html=1;labelBackgroundColor=#FFFF33;strokeColor=#36393d;fillColor=#ffff88;" vertex="1" parent="U2COYKZ9y0e4vOzo1eaQ-1">
                    <mxGeometry x="410" y="380" width="120" height="60" as="geometry"/>
                </mxCell>
                <mxCell id="bMqX9vzeGQ3PeFzSgzHq-0" value="" style="endArrow=none;html=1;fontColor=#FF0000;strokeColor=#3333FF;exitX=0.5;exitY=0;exitDx=0;exitDy=0;entryX=0.5;entryY=1;entryDx=0;entryDy=0;" edge="1" parent="U2COYKZ9y0e4vOzo1eaQ-1" source="o8oBgXos8wijMpKWkSOp-0" target="kw6-8Ziui9tUm82AIqNF-6">
                    <mxGeometry width="50" height="50" relative="1" as="geometry">
                        <mxPoint x="560" y="340" as="sourcePoint"/>
                        <mxPoint x="610" y="290" as="targetPoint"/>
                    </mxGeometry>
                </mxCell>
                <mxCell id="-ThMTFt2ipFqbg5YEFVm-0" value="" style="endArrow=open;html=1;endSize=12;startArrow=diamondThin;startSize=14;startFill=1;edgeStyle=orthogonalEdgeStyle;align=left;verticalAlign=bottom;fontColor=#FF0000;strokeColor=#3333FF;entryX=0;entryY=0.5;entryDx=0;entryDy=0;exitX=1;exitY=0.5;exitDx=0;exitDy=0;" edge="1" parent="U2COYKZ9y0e4vOzo1eaQ-1" source="kw6-8Ziui9tUm82AIqNF-0" target="kw6-8Ziui9tUm82AIqNF-6">
                    <mxGeometry x="-1" y="3" relative="1" as="geometry">
                        <mxPoint x="340" y="490" as="sourcePoint"/>
                        <mxPoint x="530" y="490" as="targetPoint"/>
                        <Array as="points">
                            <mxPoint x="370" y="280"/>
                            <mxPoint x="370" y="280"/>
                        </Array>
                    </mxGeometry>
                </mxCell>
                <mxCell id="-ThMTFt2ipFqbg5YEFVm-1" value="1" style="text;html=1;align=center;verticalAlign=middle;resizable=0;points=[];autosize=1;strokeColor=none;fillColor=none;fontColor=#FF0000;" vertex="1" parent="U2COYKZ9y0e4vOzo1eaQ-1">
                    <mxGeometry x="320" y="260" width="20" height="20" as="geometry"/>
                </mxCell>
                <mxCell id="IP90Giem8noXHMxNum-Y-0" value="1..*" style="text;html=1;align=center;verticalAlign=middle;resizable=0;points=[];autosize=1;strokeColor=none;fillColor=none;fontColor=#FF0000;" vertex="1" parent="U2COYKZ9y0e4vOzo1eaQ-1">
                    <mxGeometry x="385" y="260" width="30" height="20" as="geometry"/>
                </mxCell>
                <mxCell id="QNDLmf0B7VujXPdaQdSR-0" value="1..*" style="text;html=1;align=center;verticalAlign=middle;resizable=0;points=[];autosize=1;strokeColor=none;fillColor=none;fontColor=#FF0000;" vertex="1" parent="U2COYKZ9y0e4vOzo1eaQ-1">
                    <mxGeometry x="475" y="310" width="30" height="20" as="geometry"/>
                </mxCell>
                <mxCell id="QNDLmf0B7VujXPdaQdSR-1" value="0..*" style="text;html=1;align=center;verticalAlign=middle;resizable=0;points=[];autosize=1;strokeColor=none;fillColor=none;fontColor=#FF0000;" vertex="1" parent="U2COYKZ9y0e4vOzo1eaQ-1">
                    <mxGeometry x="475" y="360" width="30" height="20" as="geometry"/>
                </mxCell>
                <mxCell id="ulAnVibXYlt-oufWvovE-0" value="1" style="text;html=1;align=center;verticalAlign=middle;resizable=0;points=[];autosize=1;strokeColor=none;fillColor=none;fontColor=#FF0000;" vertex="1" parent="U2COYKZ9y0e4vOzo1eaQ-1">
                    <mxGeometry x="260" y="160" width="20" height="20" as="geometry"/>
                </mxCell>
                <mxCell id="ulAnVibXYlt-oufWvovE-1" value="0..*" style="text;html=1;align=center;verticalAlign=middle;resizable=0;points=[];autosize=1;strokeColor=none;fillColor=none;fontColor=#FF0000;" vertex="1" parent="U2COYKZ9y0e4vOzo1eaQ-1">
                    <mxGeometry x="255" y="230" width="30" height="20" as="geometry"/>
                </mxCell>
                <mxCell id="o8oBgXos8wijMpKWkSOp-2" value="&lt;font color=&quot;#ff0000&quot;&gt;Quản lí&lt;/font&gt;" style="rounded=0;whiteSpace=wrap;html=1;labelBackgroundColor=#FFFF33;strokeColor=#36393d;fillColor=#ffff88;" vertex="1" parent="U2COYKZ9y0e4vOzo1eaQ-1">
                    <mxGeometry x="200" y="380" width="120" height="60" as="geometry"/>
                </mxCell>
                <mxCell id="bv4nujuzxs6KhLqfxOJk-1" value="" style="endArrow=none;html=1;fontColor=#FF0000;strokeColor=#3333FF;exitX=0;exitY=1;exitDx=0;exitDy=0;entryX=1;entryY=0;entryDx=0;entryDy=0;" edge="1" parent="U2COYKZ9y0e4vOzo1eaQ-1" source="kw6-8Ziui9tUm82AIqNF-6" target="o8oBgXos8wijMpKWkSOp-2">
                    <mxGeometry width="50" height="50" relative="1" as="geometry">
                        <mxPoint x="530" y="280" as="sourcePoint"/>
                        <mxPoint x="280" y="390" as="targetPoint"/>
                    </mxGeometry>
                </mxCell>
                <mxCell id="bbgkbFkYtuxhZXDyjhQg-0" value="1" style="text;html=1;align=center;verticalAlign=middle;resizable=0;points=[];autosize=1;strokeColor=none;fillColor=none;fontColor=#FF0000;" vertex="1" parent="U2COYKZ9y0e4vOzo1eaQ-1">
                    <mxGeometry x="320" y="370" width="20" height="20" as="geometry"/>
                </mxCell>
                <mxCell id="bbgkbFkYtuxhZXDyjhQg-1" value="0..*" style="text;html=1;align=center;verticalAlign=middle;resizable=0;points=[];autosize=1;strokeColor=none;fillColor=none;fontColor=#FF0000;" vertex="1" parent="U2COYKZ9y0e4vOzo1eaQ-1">
                    <mxGeometry x="410" y="310" width="30" height="20" as="geometry"/>
                </mxCell>
            </root>
        </mxGraphModel>
    </diagram>
</mxfile>